<?xml version="1.0" encoding="UTF-8" standalone="no"?>
<!DOCTYPE svg PUBLIC "-//W3C//DTD SVG 1.1//EN" "http://www.w3.org/Graphics/SVG/1.1/DTD/svg11.dtd">
<svg width="100%" height="100%" viewBox="0 0 568 681" version="1.1" xmlns="http://www.w3.org/2000/svg" xmlns:xlink="http://www.w3.org/1999/xlink" xml:space="preserve" style="fill-rule:evenodd;clip-rule:evenodd;stroke-linejoin:round;stroke-miterlimit:1.41421;">
    <g transform="matrix(1,0,0,1,-183.75,-163.247)">
        <g transform="matrix(6.33317,0,0,6.33317,-49173.5,-4499.46)">
            <path d="M7793.6,764.448L7793.6,816.183L7809.09,826.568L7809.09,754.946L7793.6,764.448Z"/>
        </g>
        <g transform="matrix(-6.33317,-7.7559e-16,7.7559e-16,-6.33317,50109.3,5516.54)">
            <path d="M7793.6,764.448L7793.6,816.183L7809.09,826.568L7809.09,754.946L7793.6,764.448Z"/>
        </g>
        <g transform="matrix(6.33317,0,0,6.33317,-49173.5,-4499.46)">
            <path d="M7828.66,837.176L7838.33,843.674L7848.45,837.233L7848.45,801.823L7828.84,801.823L7828.66,837.176Z"/>
        </g>
        <g transform="matrix(-6.33317,-7.7559e-16,7.7559e-16,-6.33317,50112.3,5507.36)">
            <path d="M7828.66,837.176L7838.33,843.674L7848.45,837.233L7848.45,801.823L7828.84,801.823L7828.66,837.176Z"/>
        </g>
    </g>
</svg>
